HIERARCHY
ROOT Hips
{
	OFFSET	0.00	0.00	0.00
	CHANNELS 6 Xposition Yposition Zposition Zrotation Xrotation Yrotation
	JOINT LeftUpLeg
	{
		OFFSET	 0.126116	-0.014019	-0.065224
		CHANNELS 3 Zrotation Xrotation Yrotation
		JOINT LeftLeg
		{
			OFFSET	 0.000000	 0.000000	 0.569914
			CHANNELS 3 Zrotation Xrotation Yrotation
			JOINT LeftFoot
			{
				OFFSET	 0.000000	 0.000000	 0.544423
				CHANNELS 3 Zrotation Xrotation Yrotation
				JOINT LeftToeBase
				{
					OFFSET	 0.000000	 0.000000	 0.207117
					CHANNELS 3 Zrotation Xrotation Yrotation
					End Site
					{
						OFFSET	 0.000000	 0.000000	 0.207117
					}
				}
			}
		}
	}
	JOINT RightUpLeg
	{
		OFFSET	-0.124023	-0.008373	-0.065224
		CHANNELS 3 Zrotation Xrotation Yrotation
		JOINT RightLeg
		{
			OFFSET	 0.000000	 0.000000	 0.570047
			CHANNELS 3 Zrotation Xrotation Yrotation
			JOINT RightFoot
			{
				OFFSET	 0.000000	 0.000000	 0.544354
				CHANNELS 3 Zrotation Xrotation Yrotation
				JOINT RightToeBase
				{
					OFFSET	 0.000000	 0.000000	 0.207540
					CHANNELS 3 Zrotation Xrotation Yrotation
					End Site
					{
						OFFSET	 0.000000	 0.000000	 0.207540
					}
				}
			}
		}
	}
	JOINT Spine
	{
		OFFSET	 0.000184	-0.007763	 0.117403
		CHANNELS 3 Zrotation Xrotation Yrotation
		JOINT Spine1
		{
			OFFSET	 0.000000	 0.000000	 0.137269
			CHANNELS 3 Zrotation Xrotation Yrotation
			JOINT Spine2
			{
				OFFSET	 0.000000	 0.000000	 0.156879
				CHANNELS 3 Zrotation Xrotation Yrotation
				JOINT LeftShoulder
				{
					OFFSET	 0.080501	-0.002496	 0.160144
					CHANNELS 3 Zrotation Xrotation Yrotation
					JOINT LeftArm
					{
						OFFSET	 0.000000	 0.000000	 0.164363
						CHANNELS 3 Zrotation Xrotation Yrotation
						JOINT LeftForeArm
						{
							OFFSET	 0.000000	 0.000000	 0.364576
							CHANNELS 3 Zrotation Xrotation Yrotation
							JOINT LeftHand
							{
								OFFSET	 0.000000	 0.000000	 0.360812
								CHANNELS 3 Zrotation Xrotation Yrotation
								JOINT LeftHandIndex1
								{
									OFFSET	 0.000000	 0.000000	 0.086006
									CHANNELS 3 Zrotation Xrotation Yrotation
									JOINT LeftHandIndex2
									{
										OFFSET	 0.000000	 0.000000	 0.047236
										CHANNELS 3 Zrotation Xrotation Yrotation
										JOINT LeftHandIndex3
										{
											OFFSET	-0.004284	-0.000551	 0.038166
											CHANNELS 3 Zrotation Xrotation Yrotation
											End Site
											{
												OFFSET	-0.004284	-0.000551	 0.038166
											}
										}
									}
								}
							}
						}
					}
				}
				JOINT Neck
				{
					OFFSET	 0.000000	 0.000000	 0.176489
					CHANNELS 3 Zrotation Xrotation Yrotation
					JOINT Head
					{
						OFFSET	 0.000000	-0.001747	 0.077940
						CHANNELS 3 Zrotation Xrotation Yrotation
						End Site
						{
							OFFSET	 0.000000	-0.001747	 0.077940
						}
					}
				}
				JOINT RightShoulder
				{
					OFFSET	-0.080363	 0.000306	 0.159706
					CHANNELS 3 Zrotation Xrotation Yrotation
					JOINT RightArm
					{
						OFFSET	 0.000000	 0.000000	 0.164196
						CHANNELS 3 Zrotation Xrotation Yrotation
						JOINT RightForeArm
						{
							OFFSET	 0.000000	 0.000000	 0.365611
							CHANNELS 3 Zrotation Xrotation Yrotation
							JOINT RightHand
							{
								OFFSET	 0.000000	 0.000000	 0.360648
								CHANNELS 3 Zrotation Xrotation Yrotation
								JOINT RightHandIndex1
								{
									OFFSET	 0.000000	 0.000000	 0.069977
									CHANNELS 3 Zrotation Xrotation Yrotation
									JOINT RightHandIndex2
									{
										OFFSET	 0.000000	 0.000000	 0.052305
										CHANNELS 3 Zrotation Xrotation Yrotation
										JOINT RightHandIndex3
										{
											OFFSET	 0.009002	-0.000782	 0.042196
											CHANNELS 3 Zrotation Xrotation Yrotation
											End Site
											{
												OFFSET	 0.009002	-0.000782	 0.042196
											}
										}
									}
								}
							}
						}
					}
				}
			}
		}
	}
}
MOTION
Frames:    13
Frame Time: 0.03333334
-0.055681	-2.217517	 1.161187	 4.314622	-1.489663	-2.804719	 15.811190	-16.653840	-174.227800	 0.578164	-50.505000	 0.149007	 102.398100	 82.441450	-106.742700	-2.370845	 31.371360	-0.064419	-18.788810	-35.565660	-176.033300	 13.007500	-60.387970	 12.023580	 9.144869	 75.890730	-3.087614	 2.358145	 33.120670	 0.106032	 2.290535	 9.260258	 2.166444	-1.848829	 0.705570	-1.462908	 2.585267	-0.024084	 1.409413	-93.820770	 58.907090	 175.646000	 13.976950	 33.666510	-35.204780	-17.876770	 3.138048	-10.172380	 0.734649	-5.961449	-6.355306	-4.869344	 19.242710	-2.786466	-3.888681	 21.381110	 2.210024	-4.808247	 5.545617	 0.146963	-0.110581	-5.033731	 0.166452	 0.421391	 3.044243	 2.927733	 89.815880	 61.602550	-179.919600	-19.325980	 49.876600	 16.688020	 15.588100	 3.103851	 10.197590	-4.912540	 8.285731	 0.711978	 6.301047	 25.636850	-0.565615	 1.779076	 45.546580	-6.898022	 0.407379	 24.795290	 3.628971
-0.057592	-2.258520	 1.161102	 5.755503	-0.438262	-2.793113	 14.123080	-15.482730	-174.784200	 1.462238	-49.771360	 0.847125	 109.156900	 82.741610	-113.903200	-2.368347	 31.788120	-0.073854	-23.110260	-38.930200	-178.349700	 13.325230	-54.730260	 11.575290	 18.174210	 84.126170	-13.632530	 2.359020	 32.992060	 0.103039	 2.306405	 8.553658	 1.869705	-2.020682	 0.547687	-1.374641	 2.625349	-0.499443	 1.503939	-94.131300	 59.019360	 174.969500	 13.294560	 30.853760	-36.389110	-18.703960	 3.090609	-10.088600	 1.682285	-6.479167	-8.160371	-4.863492	 19.399460	-2.798173	-3.873281	 21.578110	 2.194378	-4.804014	 5.595496	 0.144043	-0.034238	-5.108410	 0.238054	 0.698674	 2.716137	 2.689031	 89.706720	 61.737270	 179.819600	-18.760460	 51.283060	 14.124570	 14.678160	 3.041718	 10.117680	-5.181582	 9.207037	 0.305294	 6.274746	 23.441600	-0.553189	 2.054192	 43.299660	-7.142887	 0.823871	 22.955400	 3.420239
-0.058967	-2.303293	 1.158288	 6.456934	 0.657590	-3.214473	 13.308980	-13.919670	-174.985600	 1.855317	-48.941350	 1.133128	 121.856600	 82.777430	-126.655800	-2.364587	 32.389890	-0.087588	-25.085940	-41.963900	 179.716900	 13.188600	-47.714690	 10.355690	 52.771610	 86.698200	-50.221780	 2.360680	 32.745560	 0.097328	 3.122028	 7.556952	 1.918931	-2.110813	 0.983240	-1.134627	 2.670974	-1.086328	 1.476122	-94.398860	 58.931060	 174.412500	 11.843930	 27.942510	-37.614850	-19.536240	 3.026461	-9.978827	 1.786576	-7.371533	-7.721599	-4.842551	 19.886580	-2.820891	-3.846251	 21.921510	 2.166907	-4.787393	 5.791176	 0.132555	-0.000512	-5.199968	 0.323217	 0.823868	 2.435519	 2.641853	 89.533680	 61.947060	 179.401300	-17.872680	 52.557750	 11.647850	 12.862700	 2.955373	 10.014510	-5.843162	 10.157410	-0.935871	 6.230081	 20.799980	-0.636870	 2.303519	 41.083900	-7.361881	 1.396523	 20.328740	 3.151740
-0.061650	-2.365587	 1.151534	 6.760795	 1.050220	-3.682106	 12.518950	-10.493950	-175.718900	 2.146860	-47.663460	 1.326424	 132.020200	 83.313810	-136.651700	-2.345994	 34.989240	-0.148619	-23.869870	-43.919960	 178.835900	 11.963590	-38.908340	 8.070236	 124.609200	 84.362850	-123.754700	 2.341332	 35.361160	 0.159251	 4.101682	 6.964625	 2.155511	-2.174785	 2.128546	-0.898404	 2.831237	-2.035957	 1.443866	-94.525680	 58.884540	 174.150400	 9.195730	 25.496330	-38.919380	-19.873170	 2.925673	-9.818404	 1.231409	-8.111683	-7.419908	-4.835777	 20.411920	-2.937868	-3.801456	 22.483700	 2.121416	-4.747286	 6.260919	 0.104726	 0.074324	-5.354174	 0.351799	 1.033281	 2.101818	 2.429781	 89.386360	 62.001430	 179.044200	-16.054820	 53.693340	 8.038433	 10.352720	 2.830017	 9.857938	-6.086017	 10.429310	-3.226799	 6.173536	 17.317310	-0.706639	 2.750994	 36.619080	-7.746592	 2.132247	 16.795010	 2.840466
-0.066777	-2.424772	 1.142254	 7.089885	 1.021792	-3.519452	 11.362380	-6.968048	-177.198000	 2.826189	-46.538380	 1.795861	 126.917100	 85.432330	-131.420600	-2.291535	 40.564870	-0.290875	-23.155410	-46.005500	 177.621400	 11.234580	-33.495500	 6.686193	 38.820760	 84.496440	-37.700710	 2.338409	 35.713340	 0.167831	 4.607730	 6.860019	 2.008879	-2.187722	 3.069123	-0.839032	 2.939019	-2.896549	 1.424484	-94.522980	 59.177790	 174.107300	 6.898724	 24.466330	-39.959400	-19.607730	 2.814214	-9.647347	 0.565729	-9.649077	-8.170833	-4.874483	 20.591370	-3.216307	-3.766917	 22.911510	 2.086347	-4.693960	 6.880635	 0.067467	 0.173073	-5.475429	 0.285116	 1.300424	 1.937045	 2.158458	 89.356200	 61.689710	 178.983200	-14.503420	 54.053540	 4.580310	 8.480897	 2.704378	 9.688036	-6.028252	 9.872824	-4.830729	 6.184162	 14.283910	-0.463340	 3.004354	 33.776180	-7.958723	 2.729030	 13.805420	 2.617902
-0.076753	-2.505068	 1.126976	 7.943290	 0.220186	-2.100607	 10.612110	-1.754690	 178.946200	 0.642760	-45.075740	 0.205368	 9.520946	 83.364520	-10.402540	-2.040190	 53.867950	-0.737279	-18.931790	-49.000260	 177.622100	 6.941971	-32.599410	 4.166207	-7.786423	 67.422580	 16.749130	 2.336859	 35.896630	 0.172313	 4.841497	 7.079021	 0.624712	-2.232322	 4.895799	-0.493306	 2.889134	-3.640986	 1.086004	-94.416080	 59.194420	 174.333800	 4.766168	 23.382550	-41.494720	-19.628780	 2.649302	-9.382577	-0.044828	-9.444488	-8.098639	-4.895639	 20.839120	-3.420771	-3.741941	 23.217910	 2.060994	-4.595998	 8.004869	-0.001760	 0.326332	-5.439122	 0.267239	 1.619441	 2.197476	 2.442186	 89.273250	 61.409190	 178.797100	-13.114620	 53.970760	 1.674779	 6.741415	 2.523360	 9.421945	-6.558940	 8.915325	-5.190779	 6.314284	 10.693820	 0.250136	 3.239358	 30.910410	-8.151043	 3.316582	 10.764720	 2.426735
-0.086703	-2.588948	 1.116562	 9.726295	-0.635556	-0.743955	 9.876125	 3.956714	 174.960200	 0.958434	-41.956530	 0.404969	-1.467340	 65.405160	 4.439777	-1.157216	 69.752850	-1.835023	-18.439490	-47.880960	 176.762600	 8.313819	-32.235440	 4.867962	-9.135601	 53.387100	 20.500420	 2.344878	 34.919270	 0.148582	 4.357507	 7.284233	-0.368680	-2.872134	 6.028144	-1.147291	 2.597681	-3.790898	 1.208040	-94.280430	 59.232800	 174.618600	 4.139065	 22.713560	-42.115750	-19.022070	 2.478484	-9.106251	 0.428346	-7.554052	-8.339426	-4.836649	 21.206040	-3.195165	-3.689966	 23.847630	 2.008230	-4.516331	 8.905208	-0.058754	 0.402820	-5.340792	 0.255682	 1.676245	 2.741346	 2.468078	 89.054260	 61.006580	 178.303600	-12.035650	 53.520910	 0.094051	 6.831687	 2.358174	 9.143217	-6.318302	 8.145074	-3.595833	 6.363323	 8.708696	 0.479181	 3.383641	 29.033230	-8.266718	 3.620225	 9.159477	 2.339329
-0.097560	-2.675839	 1.109494	 9.820416	-1.046449	 0.683718	 17.252640	 6.922523	 167.562300	 1.569455	-41.560410	 0.807256	-1.953070	 44.694060	 14.422960	-1.800703	 60.479560	-1.068000	-21.803270	-44.141190	 172.698400	 6.776685	-33.834780	 4.212018	-7.061957	 51.180480	 20.193650	 2.368499	 31.505840	 0.068956	 4.902015	 7.383410	-1.162542	-3.692243	 5.785074	-2.306153	 2.414843	-3.477601	 1.441065	-94.090230	 59.866340	 174.933400	 4.534439	 23.590920	-41.243400	-16.829730	 2.272797	-8.782156	 1.504200	-6.390879	-8.798667	-4.762470	 21.509890	-2.848022	-3.617959	 24.702280	 1.935191	-4.461947	 9.512760	-0.098016	 0.334514	-5.377988	 0.175359	 1.508491	 3.061169	 2.455785	 89.010860	 60.266370	 178.246200	-11.762470	 52.680960	-0.878956	 7.666828	 2.177912	 8.816169	-5.128789	 6.606684	-1.860410	 6.400509	 9.150363	 0.624711	 3.364495	 29.287680	-8.251488	 3.653796	 8.980680	 2.330153
-0.109507	-2.781945	 1.106765	 7.487739	-2.013814	 1.927665	 24.495560	 6.443047	 160.552100	-2.356020	-46.721060	-1.972721	 3.583855	 42.437860	 11.837010	-2.378849	 29.916340	-0.031958	-21.534980	-41.810640	 170.306800	 6.224105	-40.754750	 4.571005	-7.258816	 57.492000	 21.136430	 2.374327	 30.484870	 0.046013	 7.478313	 8.184797	-1.947871	-3.956581	 4.097655	-2.698815	 2.537643	-2.500097	 1.276492	-94.005910	 59.552780	 175.163200	 5.275150	 24.738030	-38.793250	-14.783490	 2.019461	-8.348050	 1.346072	-6.369378	-7.867886	-4.680670	 22.605610	-2.694980	-3.536209	 25.648840	 1.852300	-4.364208	 10.590030	-0.169261	 0.199314	-5.365392	 0.128872	 1.179505	 3.032406	 2.573408	 89.261020	 60.328870	 178.812700	-12.834150	 52.889930	-0.943454	 8.405119	 1.948118	 8.378843	-3.830293	 4.752867	-0.320699	 6.395564	 11.620920	 0.589592	 3.145334	 32.084780	-8.074648	 3.381154	 10.425160	 2.407487
-0.120639	-2.887512	 1.111479	 5.751049	-2.904061	 2.257816	 22.752080	 3.239244	 159.339800	-5.166907	-58.408210	-4.705612	 2.055339	 56.892360	 11.147920	-2.380545	 29.579590	-0.024546	-21.098390	-39.776430	 170.347800	 5.853884	-49.271670	 5.019989	-8.437766	 67.199300	 22.390060	 2.374313	 30.487130	 0.046067	 9.986457	 8.889252	-2.010239	-3.802438	 1.963227	-2.884217	 2.553738	-1.290168	 1.384962	-93.852830	 59.547710	 175.495600	 7.188231	 26.828200	-36.016160	-11.949900	 1.730266	-7.818603	 0.824141	-5.845833	-6.896110	-4.594351	 23.792160	-2.525546	-3.451723	 26.601330	 1.766667	-4.226291	 12.078300	-0.271246	 0.047142	-5.222052	-0.005833	 0.809362	 2.900118	 2.374827	 89.523320	 60.011350	 179.416300	-14.923150	 52.832570	 1.106024	 9.996922	 1.697243	 7.847693	-2.283372	 1.999279	 0.305766	 6.372845	 14.914090	 0.449781	 2.911124	 34.851000	-7.881198	 2.910198	 12.877590	 2.555926
-0.126927	-2.981632	 1.121745	 4.439488	-3.422106	 1.984369	 17.161790	-2.311005	 163.348700	-3.387498	-71.019260	-3.537383	-7.312515	 71.226460	 17.807570	-2.373815	 30.854280	-0.052797	-20.352330	-36.275840	 171.432100	 4.414667	-53.390640	 4.156162	-10.634940	 74.261480	 24.892210	 2.374296	 30.489660	 0.046124	 12.206260	 9.244733	-1.778958	-3.464639	 1.475147	-2.651485	 2.440127	-0.912554	 1.369399	-93.725380	 59.899200	 175.727400	 9.506874	 29.508120	-34.298960	-8.432647	 1.454957	-7.286548	 0.777857	-3.284059	-5.137330	-4.571709	 24.439620	-2.601684	-3.391756	 27.261900	 1.705920	-4.142086	 12.968720	-0.334301	-0.120873	-5.023384	-0.074254	 0.337168	 2.709656	 2.362412	 89.610950	 59.762510	 179.617100	-16.684380	 51.272880	 6.608031	 11.484640	 1.464811	 7.314059	-1.595182	 0.679185	 1.010307	 6.377652	 17.312770	 0.438811	 2.697120	 37.192800	-7.700912	 2.467349	 15.129240	 2.712064
-0.131810	-3.105122	 1.140852	 2.632611	-3.482226	 1.800483	 15.478950	-15.220530	 168.023200	-4.735848	-81.650920	-5.034915	-50.335910	 84.029750	 58.794800	-2.374500	 30.731420	-0.050048	-19.198540	-29.961150	 173.069000	 1.602194	-54.588090	 1.923879	-16.529680	 81.520250	 31.133110	 2.371537	 30.986190	 0.057230	 14.846710	 9.313774	-1.966919	-2.591421	 1.518107	-1.823214	 2.240371	-1.004964	 0.974746	-93.466630	 60.279840	 176.250800	 13.158930	 34.048430	-32.047450	-3.461999	 1.090272	-6.507786	 2.053453	-1.105415	-2.310591	-4.528059	 25.395120	-2.650964	-3.331175	 27.916750	 1.644560	-4.089585	 13.516950	-0.373914	-0.340842	-4.793278	-0.164765	-0.329759	 2.327603	 2.968941	 89.859980	 60.039030	-179.824200	-18.278020	 48.135940	 15.508260	 13.152600	 1.157141	 6.529014	-1.421824	 1.126110	 2.013761	 6.375661	 19.688800	 0.381032	 2.474119	 39.459890	-7.509917	 2.037516	 17.259720	 2.878327
-0.131935	-3.213750	 1.158599	 1.110412	-2.973008	 0.994185	 20.187550	-25.195470	 173.141600	-12.244650	-77.062970	-12.287440	-47.080040	 89.302540	 52.346850	-2.383507	 28.963750	-0.011081	-17.059950	-24.390910	 175.474400	-0.027376	-53.080010	 0.584074	-29.108640	 85.826130	 43.570430	 2.366425	 31.848340	 0.076732	 16.408930	 8.954765	-1.462277	-1.494682	 1.448759	-1.392617	 2.060163	-1.197492	 0.791998	-93.176620	 60.263160	 176.895200	 16.493790	 38.402380	-29.292550	-0.744914	 0.796887	-5.761448	 2.703283	 1.120223	-0.490760	-4.483344	 26.247730	-2.656958	-3.262968	 28.639150	 1.575509	-4.036848	 14.062260	-0.413923	-0.445559	-4.786019	-0.191050	-0.880701	 2.149653	 3.003979	 90.104630	 60.441180	-179.262400	-18.955180	 44.679270	 22.838850	 13.660330	 0.892419	 5.774309	-2.197609	 1.492814	 3.610464	 6.383888	 20.063080	 0.425969	 2.421198	 39.973520	-7.464162	 1.950662	 17.683290	 2.913615
